<svg width="32" height="32" viewBox="0 0 32 32" xmlns="http://www.w3.org/2000/svg">
  <defs>
    <!-- Main Diamond Gradient -->
    <linearGradient id="diamondGradient" x1="0%" y1="0%" x2="100%" y2="100%">
      <stop offset="0%" stop-color="#22d3ee" />
      <stop offset="30%" stop-color="#0ea5e9" />
      <stop offset="70%" stop-color="#3b82f6" />
      <stop offset="100%" stop-color="#8b5cf6" />
    </linearGradient>

    <!-- Inner Facet Gradients -->
    <linearGradient id="topFacet" x1="0%" y1="0%" x2="100%" y2="100%">
      <stop offset="0%" stop-color="#06b6d4" />
      <stop offset="100%" stop-color="#0284c7" />
    </linearGradient>

    <linearGradient id="sideFacet" x1="0%" y1="0%" x2="100%" y2="100%">
      <stop offset="0%" stop-color="#0284c7" />
      <stop offset="100%" stop-color="#1d4ed8" />
    </linearGradient>

    <linearGradient id="bottomFacet" x1="0%" y1="0%" x2="100%" y2="100%">
      <stop offset="0%" stop-color="#1d4ed8" />
      <stop offset="100%" stop-color="#7c3aed" />
    </linearGradient>

    <!-- Shine Effect -->
    <linearGradient id="shine" x1="0%" y1="0%" x2="100%" y2="100%">
      <stop offset="0%" stop-color="rgba(255,255,255,0.8)" />
      <stop offset="50%" stop-color="rgba(255,255,255,0.2)" />
      <stop offset="100%" stop-color="rgba(255,255,255,0)" />
    </linearGradient>
  </defs>

  <!-- Background Circle for better contrast -->
  <circle cx="16" cy="16" r="15" fill="rgba(15, 23, 42, 0.9)" stroke="rgba(34, 211, 238, 0.3)" stroke-width="1"/>

  <!-- Main Diamond Shape -->
  <path
    d="M16 4 L26 12 L16 28 L6 12 Z"
    fill="url(#diamondGradient)"
  />

  <!-- Top Facet -->
  <path
    d="M16 4 L26 12 L16 15 L6 12 Z"
    fill="url(#topFacet)"
    opacity="0.9"
  />

  <!-- Left Facet -->
  <path
    d="M6 12 L16 15 L16 28 Z"
    fill="url(#sideFacet)"
    opacity="0.7"
  />

  <!-- Right Facet -->
  <path
    d="M26 12 L16 15 L16 28 Z"
    fill="url(#bottomFacet)"
    opacity="0.8"
  />

  <!-- Shine Effect -->
  <path
    d="M16 4 L22 9 L16 15 L10 9 Z"
    fill="url(#shine)"
    opacity="0.6"
  />

  <!-- Edge Highlights -->
  <path
    d="M16 4 L26 12 L16 15 L6 12 Z"
    fill="none"
    stroke="rgba(255,255,255,0.3)"
    stroke-width="0.3"
  />
</svg>
